Patient4_TMGait_0pt6_02_right_27_EMG.mot
version=1
nRows=17
nColumns=33
inDegrees=no
endheader
time	1LAddLong	2LGlutMax	3LGlutMed	4LIliopsoas	5LSemiMemb	6LBicFemLong	7LRecFem	8LVastMed	9LVastLat	10LGasMed	11LTibAnt	12lTibPost	13LPeroneusLong	14LSol	15LExtDigLong	16LFlexDigLong	17RAddLong	18RGlutMax	19RGlutMed	20RIliopsoas	21RSemiMemb	22RBicFemLong	23RRecFem	24RVastMed	25RVastLat	26RGasMed	27RTibAnt	28RTibPost	29RPeroneusLong	30RSol	31RExtDigLong	32RFlexDigLong
32.862	-0.001526	-0.36331	0.0737	0.001068	0.016022	0.002441	0.098877	0.015869	0.057678	-0.036774	0.012665	0.002441	-0.057678	0.15717	-0.092773	-0.003357	-0.10361	-0.17944	-1.0666	-0.099182	0.74341	-0.45975	0.28153	0.5127	-0.17075	0.039368	0.13138	0.15961	-0.44205	-0.77499	-0.000458	-0.032196
32.863	-0.005798	-0.34286	0.053711	-0.00473	0.02243	-0.006104	0.14893	0.015869	0.039368	-0.033569	-0.020752	0.002441	-0.039063	0.11246	-0.24765	-0.015411	-0.067596	-0.12894	-1.0115	-0.099335	0.51239	-0.41519	0.23148	0.61142	-0.000305	0.034332	0.053558	0.021667	0.21652	-0.1178	-0.002136	-0.027466
32.864	-0.00824	-0.31418	0.072479	0.022583	0.025024	0.029907	0.22827	0.011292	0.010071	-0.024109	-0.11612	0.009766	-0.067902	0.091248	-0.51453	0.006866	-0.021973	-0.058746	0.28198	-0.089722	0.39185	-0.2594	0.2243	0.55054	0.089264	0.072327	0.018463	-0.027161	0.25421	0.24536	-0.003052	-0.015717
32.865	-0.005798	-0.25589	0.066681	0.016174	0.022583	0.014954	0.28122	0.01236	-0.00824	-0.054626	-0.10346	0.003662	-0.046082	0.11978	-0.32928	-0.002594	-0.005493	-0.073395	0.37781	0.036163	0.17181	0.006104	0.24216	0.33096	0.0914	0.060425	0.003204	-0.19272	0.26443	0.091248	-0.003967	-0.019836
32.866	-0.002289	-0.2449	0.078583	-0.01236	0.019226	0.027008	0.26001	0.010071	-0.020905	-0.023193	-0.07019	-0.000763	-0.11459	0.15015	-0.39887	0.00412	0.00473	-0.22949	-0.35416	0.12116	0.10452	0.24948	0.44357	-0.081024	0.042877	0.014191	0.011139	-0.12924	0.35614	0.10773	-0.002899	-0.010986
32.867	-0.006409	-0.19836	0.11139	-0.015869	0.021515	0.008392	0.13779	0.006714	-0.030212	-0.001526	0.001678	0.00061	-0.11139	0.15198	-0.495	0.011749	-0.001221	-0.21744	0.20142	-0.002747	0.035248	0.30579	0.54459	-0.21469	0.005798	0.071259	0.028992	0.079651	0.34607	-0.31235	-0.003815	-0.022125
32.868	-0.016632	-0.10941	0.12222	0.003815	0.031433	0.010834	0.15762	0.010834	-0.041809	-0.001068	-0.035706	-0.001678	-0.072937	0.10223	-0.47974	0.00351	-0.013123	-0.17075	0.23941	-0.010834	-0.027161	0.24506	0.47745	-0.099487	-0.005188	0.061035	0.049744	0.28595	0.023346	-1.0664	-0.00473	-0.026855
32.869	-0.009918	0.017853	0.10956	0.019379	0.018616	0.02533	0.25665	0.012665	-0.056152	0.016022	-0.10071	-0.007172	-0.070343	-0.015411	0.34576	0.002441	-0.023804	-0.23453	-0.50354	-0.10574	0.00473	-0.005188	0.37369	0.07019	-0.036621	0.030975	0.079803	0.037384	-0.081329	-1.2273	-0.007172	-0.023499
32.87	-0.009918	0.1413	0.10574	0.014801	0.020752	0.033264	0.30029	0.001678	-0.064392	0.001678	-0.062866	-0.007019	-0.091553	-0.030823	0.43396	0.005798	0.0177	-0.33585	-0.80109	-0.20035	0.053406	-0.53406	0.36728	0.099182	-0.003967	0.033264	0.073853	0.048523	-0.10651	-0.018768	-0.001221	-0.026093
32.871	-0.010223	0.25513	0.10971	-0.007019	0.017548	0.027466	0.23743	0.005493	-0.082397	-0.003967	-0.19012	-0.008087	-0.121	0.04715	0.914	0.001678	0.023956	-0.49347	-0.50766	-0.1889	0.13519	-0.8342	0.29877	0.2124	0.13123	0.047455	0.075989	0.026855	-0.077209	0.34698	-0.001373	-0.011292
32.872	-0.000916	0.41031	0.13229	-0.016479	0.018768	0.043945	0.10895	0.002899	-0.093994	0.012817	-0.020142	-0.00473	-0.13855	0.11719	0.36804	0.016174	0.023346	-0.83237	-0.51697	-0.014801	0.10986	-0.66956	0.32227	0.24796	0.20935	0.069122	0.14175	0.005493	-0.000763	0.28534	-0.001221	-0.021515
32.873	-0.001678	0.59555	0.1207	-0.014038	0.014954	0.04425	0.031281	0.008545	-0.10376	0.032654	0.069885	-0.006866	-0.15442	0.10468	0.97809	0.02243	0.008087	-0.85037	-0.068359	-0.003052	-0.090332	-0.52917	0.34454	0.15381	0.19867	0.068665	0.18295	-0.013733	0.023193	0.005493	-0.007172	-0.01709
32.874	-0.008392	0.78644	0.11017	-0.002899	0.004578	0.031738	0.03952	0.012512	-0.1149	-0.002899	-0.078278	-0.005341	-0.088806	0.14587	0.59357	0.025177	0.03952	-0.77545	0.26306	0.013123	-0.20966	-0.56152	0.3566	0.00946	0.14664	0.056305	0.20599	-0.022888	0.041962	-0.024719	-0.003815	-0.024414
32.875	-0.001526	0.98984	0.10346	-0.023651	0.011902	0.02243	0.15625	0.016174	-0.10956	-0.022278	0.01236	-0.005951	-0.028381	0.23819	-0.2562	0.033264	0.045166	-0.70221	-0.49027	0.045471	-0.13947	-0.29083	0.25818	0.033722	0.12924	0.035858	0.20401	-0.03006	0.029449	-0.011444	-0.002747	-0.036163
32.876	-0.00412	1.161	0.070496	-0.018768	0.012817	-0.001068	0.20416	0.014191	-0.10742	-0.003662	-0.07431	0.00061	-0.01709	0.13367	-0.3775	0.038605	0.029602	-0.65216	-0.081024	0.010986	-0.11795	-0.082855	0.22308	0.039063	0.103	0.009613	0.16815	-0.029449	0.043488	-0.042419	-0.00473	-0.028687
32.877	-0.007019	1.2439	0.048828	0.021667	0.018005	0.006561	0.15686	0.005798	-0.11292	0.005188	-0.21088	-0.006561	-0.032959	-0.068512	-0.59845	0.020447	0.052338	-0.71167	-0.54886	0.10559	0.005798	0.48096	0.29495	0	0.059967	0.000305	0.1619	-0.03067	0.072632	0.070953	0.001526	-0.023651
32.878	-0.010223	1.4449	0.027161	0.007935	0.022278	0.019836	0.12314	0.00412	-0.11917	0.014191	-0.17853	-0.000916	0.016785	-0.16403	-0.44403	0.021973	0.048676	-0.80475	-0.54367	0.14526	-0.010071	1.0135	0.23895	-0.001678	-0.009308	-0.002594	0.12116	-0.006409	0.10117	0.067902	-0.002747	-0.03479
